<?xml version="1.0" encoding="UTF-8"?>
<!-- Generated by jsxcad -->
<!DOCTYPE svg PUBLIC "-//W3C//DTD SVG 1.1 Tiny//EN" "http://www.w3.org/Graphics/SVG/1.1/DTD/svg11-tiny.dtd">
<svg viewBox="-250 -250 500 500" width="500" height="500" xmlns="http://www.w3.org/2000/svg"><path d="M51.28816876843341,57.79402915986741L-65.25957271589579,-149.93583593845736L52.481392879554065,83.36029732101659z" style="fill:rgb(247,158,158)"/><path d="M-65.25957271589579,-149.93583593845736L31.615484957950546,98.22387878013929L52.481392879554065,83.36029732101659z" style="fill:rgb(187,64,221)"/><path d="M72.36104151069736,55.90043325053764L-39.86381720138003,-147.88112115420046L74.4984729262274,88.30459482039555z" style="fill:rgb(247,158,158)"/><path d="M-39.86381720138003,-147.88112115420046L52.481392879554065,83.36029732101659L74.4984729262274,88.30459482039555z" style="fill:rgb(67,34,190)"/><path d="M9.966222785875352,146.76537733786816L-136.3222147637322,-95.02844982267845L-2.4129041470117247,131.32641898556702z" style="fill:rgb(23,55,145)"/><path d="M30.71757785648944,65.86562724214446L-97.50324006143092,-75.5361588441938L33.18801750092147,154.89389167158166z" style="fill:rgb(247,158,158)"/><path d="M30.542895624497575,154.98628320517653L-123.920978174725,-80.94830608241477L9.966222785875352,146.76537733786816z" style="fill:rgb(57,36,182)"/><path d="M112.92776978263507,84.5981886012662L3.1204040505666106,-135.55995137877707L112.2685133543126,105.51491200054633z" style="fill:rgb(246,148,167)"/><path d="M-65.25957271589579,-149.93583593845736L51.28816876843341,57.79402915986741L-63.424715257382914,-174.99253371691304zM54.38562174727957,124.16069225680725L-70.44433777664452,-79.13298328894095L55.78316673341981,154.1047690928756z" style="fill:rgb(247,158,158)"/><path d="M112.2685133543126,105.51491200054633L-12.856573821762167,-112.73044576239884L100.99837170907773,126.68564627579701z" style="fill:rgb(231,109,199)"/><path d="M75.8450399995094,108.71898742918198L-42.39678853841038,-91.1243781446553L78.24490025730941,145.10165616190292z" style="fill:rgb(247,158,158)"/><path d="M-70.44433777664452,-79.13298328894095L30.542895624497575,154.98628320517653L55.78316673341981,154.1047690928756z" style="fill:rgb(102,32,209)"/><path d="M-39.86381720138003,-147.88112115420046L72.36104151069736,55.90043325053764L-38.446773359325164,-179.63307939082307z" style="fill:rgb(247,158,158)"/><path d="M100.99837170907773,126.68564627579701L-39.07077371962735,-92.54637927273606L80.90689001033086,144.03467765701595z" style="fill:rgb(197,72,218)"/><path d="M-39.07077371962735,-92.54637927273606L55.78316673341981,154.1047690928756L80.90689001033086,144.03467765701595z" style="fill:rgb(152,45,222)"/><path d="M31.615484957950546,98.22387878013929L-65.25957271589579,-149.93583593845736L-91.75340873297579,-132.4770968636414z" style="fill:rgb(187,64,221)"/><path d="M-97.50324006143092,-75.5361588441938L30.71757785648944,65.86562724214446L-88.53259642399412,-164.37299755371686z" style="fill:rgb(247,158,158)"/><path d="M52.481392879554065,83.36029732101659L-39.86381720138003,-147.88112115420046L-65.25957271589579,-149.93583593845736z" style="fill:rgb(67,34,190)"/><path d="M-136.3222147637322,-95.02844982267845L9.966222785875352,146.76537733786816L-123.920978174725,-80.94830608241477z" style="fill:rgb(23,55,145)"/><path d="M3.1204040505666106,-135.55995137877707L112.92776978263507,84.5981886012662L6.280624740012439,-156.59174399459857z" style="fill:rgb(246,148,167)"/><path d="M-88.53259642399412,-164.37299755371686L-65.25957271589579,-149.93583593845736L-77.63876615883584,-170.65122313015965zM-77.63876615883584,-170.65122313015965L-65.25957271589579,-149.93583593845736L-63.424715257382914,-174.99253371691304zM-65.25957271589579,-149.93583593845736L-49.1084829564243,-179.36506738354214L-63.424715257382914,-174.99253371691304z" style="fill:rgb(83,212,212)"/><path d="M-42.39678853841038,-91.1243781446553L75.8450399995094,108.71898742918198L-40.76693589391984,-127.64477388037251z" style="fill:rgb(247,158,158)"/><path d="M-123.920978174725,-80.94830608241477L30.542895624497575,154.98628320517653L-100.66270437144149,-75.11618519766525z" style="fill:rgb(57,36,182)"/><path d="M-70.44433777664452,-79.13298328894095L54.38562174727957,124.16069225680725L-68.23021715389002,-109.36889131992149z" style="fill:rgb(247,158,158)"/><path d="M-65.25957271589579,-149.93583593845736L-88.53259642399412,-164.37299755371686L-91.75340873297579,-132.4770968636414z" style="fill:rgb(83,212,212)"/><path d="M-12.856573821762167,-112.73044576239884L112.2685133543126,105.51491200054633L3.1204040505666106,-135.55995137877707z" style="fill:rgb(231,109,199)"/><path d="M-49.1084829564243,-179.36506738354214L-39.86381720138003,-147.88112115420046L-38.446773359325164,-179.63307939082307zM-39.86381720138003,-147.88112115420046L-22.880815908343028,-180.02436561627445L-38.446773359325164,-179.63307939082307z" style="fill:rgb(83,212,212)"/><path d="M30.542895624497575,154.98628320517653L-70.44433777664452,-79.13298328894095L-100.66270437144149,-75.11618519766525z" style="fill:rgb(102,32,209)"/><path d="M-49.1084829564243,-179.36506738354214L-65.25957271589579,-149.93583593845736L-39.86381720138003,-147.88112115420046zM-124.9349190322998,-135.62192506342842L-123.920978174725,-80.94830608241477L-104.22792395540375,-155.32760957444566zM-136.3222147637322,-95.02844982267845L-124.9349190322998,-135.62192506342842L-136.41237882732406,-114.40729368779051zM-104.22792395540375,-155.32760957444566L-100.66270437144149,-75.11618519766525L-88.53259642399412,-164.37299755371686z" style="fill:rgb(83,212,212)"/><path d="M-39.07077371962735,-92.54637927273606L100.99837170907773,126.68564627579701L-12.856573821762167,-112.73044576239884z" style="fill:rgb(197,72,218)"/><path d="M55.78316673341981,154.1047690928756L-39.07077371962735,-92.54637927273606L-70.44433777664452,-79.13298328894095z" style="fill:rgb(152,45,222)"/><path d="M-124.9349190322998,-135.62192506342842L-136.3222147637322,-95.02844982267845L-123.920978174725,-80.94830608241477zM-22.880815908343028,-180.02436561627445L-12.856573821762167,-112.73044576239884L-3.184178679964472,-172.16848858110808zM-104.22792395540375,-155.32760957444566L-123.920978174725,-80.94830608241477L-100.66270437144149,-75.11618519766525zM-22.880815908343028,-180.02436561627445L-39.86381720138003,-147.88112115420046L-39.07077371962735,-92.54637927273606zM-88.53259642399412,-164.37299755371686L-100.66270437144149,-75.11618519766525L-97.50324006143092,-75.5361588441938zM-3.184178679964472,-172.16848858110808L3.1204040505666106,-135.55995137877707L6.280624740012439,-156.59174399459857zM-3.184178679964472,-172.16848858110808L-12.856573821762167,-112.73044576239884L3.1204040505666106,-135.55995137877707zM-22.880815908343028,-180.02436561627445L-39.07077371962735,-92.54637927273606L-12.856573821762167,-112.73044576239884zM-93.80456852104436,-112.16432893579913L-70.44433777664452,-79.13298328894095L-68.23021715389002,-109.36889131992149zM-70.44433777664452,-79.13298328894095L-40.76693589391984,-127.64477388037251L-68.23021715389002,-109.36889131992149zM-70.44433777664452,-79.13298328894095L-93.80456852104436,-112.16432893579913L-97.50324006143092,-75.5361588441938zM-39.07077371962735,-92.54637927273606L-39.86381720138003,-147.88112115420046L-42.39678853841038,-91.1243781446553zM-40.76693589391984,-127.64477388037251L-70.44433777664452,-79.13298328894095L-42.39678853841038,-91.1243781446553z" style="fill:rgb(83,212,212)"/></svg>
